<svg width="128" height="50" viewBox="0 0 128 50" fill="none" xmlns="http://www.w3.org/2000/svg">
<path d="M1 20.9492C1 10.4558 9.50659 1.94922 20 1.94922H127V29.9492C127 40.4426 118.493 48.9492 108 48.9492H1V20.9492Z" stroke="#7030A0" stroke-width="2"/>
<path d="M20.25 16.6072V14.8912H37.54V16.6072H33.926V24.7192H37.488V26.4612H20.302V24.7192H23.864V16.6072H20.25ZM25.996 16.6072V24.7192H31.794V16.6072H25.996ZM39.516 32.8832H18.378V31.1152H39.516V32.8832ZM60.392 35.8992H58.26V12.5252H60.392V35.8992ZM44.74 28.4892C48.562 28.4892 52.02 28.2812 56.076 27.6572L56.284 29.3992C52.046 30.1012 48.562 30.2572 44.532 30.2572H42.608V21.3132H51.188V16.4512H42.53V14.7092H53.346V23.0552H44.74V28.4892ZM83.2179 35.9252H81.0859V12.5512H83.2179V35.9252ZM76.1979 29.9972H65.4859V14.8392H76.1979V29.9972ZM67.5659 28.3072H74.1179V16.5552H67.5659V28.3072ZM106.226 25.9672H104.068V20.1952H99.3099C98.8939 23.0292 96.5799 24.9012 93.3819 24.9012C89.9239 24.9012 87.3759 22.6652 87.3759 19.3632C87.3759 16.1392 89.9239 13.9032 93.3819 13.9032C96.4759 13.9032 98.8679 15.7232 99.2839 18.4272H104.068V12.5772H106.226V25.9672ZM93.3819 23.1072C95.6699 23.1072 97.3339 21.5732 97.3339 19.3632C97.3339 17.2052 95.6699 15.6972 93.3819 15.6972C91.0679 15.6972 89.4039 17.2052 89.4039 19.3632C89.4039 21.5732 91.0679 23.1072 93.3819 23.1072ZM106.226 27.1632V35.5612H91.0679V27.1632H106.226ZM104.146 33.8452V28.8532H93.1479V33.8452H104.146Z" fill="#7030A0"/>
</svg>
